<svg version="1.1" xmlns="http://www.w3.org/2000/svg" xmlns:xlink="http://www.w3.org/1999/xlink" width="780.0098419189453" height="811"><defs/><g><text fill="#eeeeee" stroke="none" font-family="Arial" font-size="24px" font-style="normal" font-weight="normal" text-decoration="none" x="0" y="0"></text><text fill="#eeeeee" stroke="none" font-family="Arial" font-size="24px" font-style="normal" font-weight="normal" text-decoration="none" x="0" y="30"></text><text fill="#eeeeee" stroke="none" font-family="Arial" font-size="24px" font-style="normal" font-weight="normal" text-decoration="none" x="0" y="60"></text><text fill="#eeeeee" stroke="none" font-family="Arial" font-size="24px" font-style="normal" font-weight="normal" text-decoration="none" x="0" y="90"></text><text fill="#eeeeee" stroke="none" font-family="Arial" font-size="24px" font-style="normal" font-weight="normal" text-decoration="none" x="0" y="120"></text><text fill="#eeeeee" stroke="none" font-family="Arial" font-size="24px" font-style="normal" font-weight="normal" text-decoration="none" x="0" y="150"></text><text fill="#eeeeee" stroke="none" font-family="Arial" font-size="24px" font-style="normal" font-weight="normal" text-decoration="none" x="0" y="180"></text><text fill="#eeeeee" stroke="none" font-family="Arial" font-size="24px" font-style="normal" font-weight="normal" text-decoration="none" x="0" y="210"></text><text fill="#eeeeee" stroke="none" font-family="Arial" font-size="24px" font-style="normal" font-weight="normal" text-decoration="none" x="0" y="240"></text><text fill="#eeeeee" stroke="none" font-family="Arial" font-size="24px" font-style="normal" font-weight="normal" text-decoration="none" x="0" y="270"></text><text fill="#eeeeee" stroke="none" font-family="Arial" font-size="24px" font-style="normal" font-weight="normal" text-decoration="none" x="0" y="300"></text><text fill="#eeeeee" stroke="none" font-family="Arial" font-size="24px" font-style="normal" font-weight="normal" text-decoration="none" x="0" y="330"></text><text fill="#eeeeee" stroke="none" font-family="Arial" font-size="24px" font-style="normal" font-weight="normal" text-decoration="none" x="0" y="360"></text><text fill="#eeeeee" stroke="none" font-family="Arial" font-size="24px" font-style="normal" font-weight="normal" text-decoration="none" x="0" y="390"></text><text fill="#eeeeee" stroke="none" font-family="Arial" font-size="24px" font-style="normal" font-weight="normal" text-decoration="none" x="0" y="420"></text><text fill="#eeeeee" stroke="none" font-family="Arial" font-size="24px" font-style="normal" font-weight="normal" text-decoration="none" x="0" y="450"></text><text fill="#eeeeee" stroke="none" font-family="Arial" font-size="24px" font-style="normal" font-weight="normal" text-decoration="none" x="0" y="480"></text><text fill="#eeeeee" stroke="none" font-family="Arial" font-size="24px" font-style="normal" font-weight="normal" text-decoration="none" x="0" y="510"></text><text fill="#eeeeee" stroke="none" font-family="Arial" font-size="24px" font-style="normal" font-weight="normal" text-decoration="none" x="0" y="540"></text><text fill="#eeeeee" stroke="none" font-family="Arial" font-size="24px" font-style="normal" font-weight="normal" text-decoration="none" x="0" y="570"></text><text fill="#eeeeee" stroke="none" font-family="Arial" font-size="24px" font-style="normal" font-weight="normal" text-decoration="none" x="0" y="600"></text><text fill="#eeeeee" stroke="none" font-family="Arial" font-size="24px" font-style="normal" font-weight="normal" text-decoration="none" x="0" y="630"></text><text fill="#eeeeee" stroke="none" font-family="Arial" font-size="24px" font-style="normal" font-weight="normal" text-decoration="none" x="0" y="660"></text><text fill="#eeeeee" stroke="none" font-family="Arial" font-size="24px" font-style="normal" font-weight="normal" text-decoration="none" x="0" y="690"></text><text fill="#eeeeee" stroke="none" font-family="Arial" font-size="24px" font-style="normal" font-weight="normal" text-decoration="none" x="0" y="720"></text><text fill="#eeeeee" stroke="none" font-family="Arial" font-size="24px" font-style="normal" font-weight="normal" text-decoration="none" x="0" y="750"></text><text fill="#eeeeee" stroke="none" font-family="Arial" font-size="24px" font-style="normal" font-weight="normal" text-decoration="none" x="0" y="780"></text><text fill="#eeeeee" stroke="none" font-family="Arial" font-size="24px" font-style="normal" font-weight="normal" text-decoration="none" x="0" y="810"></text><text fill="#eeeeee" stroke="none" font-family="Arial" font-size="24px" font-style="normal" font-weight="normal" text-decoration="none" x="200" y="0"></text><text fill="#eeeeee" stroke="none" font-family="Arial" font-size="24px" font-style="normal" font-weight="normal" text-decoration="none" x="200" y="30"></text><text fill="#eeeeee" stroke="none" font-family="Arial" font-size="24px" font-style="normal" font-weight="normal" text-decoration="none" x="200" y="60"></text><text fill="#eeeeee" stroke="none" font-family="Arial" font-size="24px" font-style="normal" font-weight="normal" text-decoration="none" x="200" y="90"></text><text fill="#eeeeee" stroke="none" font-family="Arial" font-size="24px" font-style="normal" font-weight="normal" text-decoration="none" x="200" y="120"></text><text fill="#eeeeee" stroke="none" font-family="Arial" font-size="24px" font-style="normal" font-weight="normal" text-decoration="none" x="200" y="150"></text><text fill="#eeeeee" stroke="none" font-family="Arial" font-size="24px" font-style="normal" font-weight="normal" text-decoration="none" x="200" y="180"></text><text fill="#eeeeee" stroke="none" font-family="Arial" font-size="24px" font-style="normal" font-weight="normal" text-decoration="none" x="200" y="210"></text><text fill="#eeeeee" stroke="none" font-family="Arial" font-size="24px" font-style="normal" font-weight="normal" text-decoration="none" x="200" y="240"></text><text fill="#eeeeee" stroke="none" font-family="Arial" font-size="24px" font-style="normal" font-weight="normal" text-decoration="none" x="200" y="270"></text><text fill="#eeeeee" stroke="none" font-family="Arial" font-size="24px" font-style="normal" font-weight="normal" text-decoration="none" x="200" y="300"></text><text fill="#eeeeee" stroke="none" font-family="Arial" font-size="24px" font-style="normal" font-weight="normal" text-decoration="none" x="200" y="330"></text><text fill="#eeeeee" stroke="none" font-family="Arial" font-size="24px" font-style="normal" font-weight="normal" text-decoration="none" x="200" y="360"></text><text fill="#eeeeee" stroke="none" font-family="Arial" font-size="24px" font-style="normal" font-weight="normal" text-decoration="none" x="200" y="390"></text><text fill="#eeeeee" stroke="none" font-family="Arial" font-size="24px" font-style="normal" font-weight="normal" text-decoration="none" x="200" y="420"></text><text fill="#eeeeee" stroke="none" font-family="Arial" font-size="24px" font-style="normal" font-weight="normal" text-decoration="none" x="200" y="450"></text><text fill="#eeeeee" stroke="none" font-family="Arial" font-size="24px" font-style="normal" font-weight="normal" text-decoration="none" x="200" y="480"></text><text fill="#eeeeee" stroke="none" font-family="Arial" font-size="24px" font-style="normal" font-weight="normal" text-decoration="none" x="200" y="510"></text><text fill="#eeeeee" stroke="none" font-family="Arial" font-size="24px" font-style="normal" font-weight="normal" text-decoration="none" x="200" y="540"></text><text fill="#eeeeee" stroke="none" font-family="Arial" font-size="24px" font-style="normal" font-weight="normal" text-decoration="none" x="200" y="570"></text><text fill="#eeeeee" stroke="none" font-family="Arial" font-size="24px" font-style="normal" font-weight="normal" text-decoration="none" x="200" y="600"></text><text fill="#eeeeee" stroke="none" font-family="Arial" font-size="24px" font-style="normal" font-weight="normal" text-decoration="none" x="200" y="630"></text><text fill="#eeeeee" stroke="none" font-family="Arial" font-size="24px" font-style="normal" font-weight="normal" text-decoration="none" x="200" y="660"></text><text fill="#eeeeee" stroke="none" font-family="Arial" font-size="24px" font-style="normal" font-weight="normal" text-decoration="none" x="200" y="690"></text><text fill="#eeeeee" stroke="none" font-family="Arial" font-size="24px" font-style="normal" font-weight="normal" text-decoration="none" x="200" y="720"></text><text fill="#eeeeee" stroke="none" font-family="Arial" font-size="24px" font-style="normal" font-weight="normal" text-decoration="none" x="200" y="750"></text><text fill="#eeeeee" stroke="none" font-family="Arial" font-size="24px" font-style="normal" font-weight="normal" text-decoration="none" x="200" y="780"></text><text fill="#eeeeee" stroke="none" font-family="Arial" font-size="24px" font-style="normal" font-weight="normal" text-decoration="none" x="200" y="810"></text><text fill="#eeeeee" stroke="none" font-family="Arial" font-size="24px" font-style="normal" font-weight="normal" text-decoration="none" x="400" y="0"></text><text fill="#eeeeee" stroke="none" font-family="Arial" font-size="24px" font-style="normal" font-weight="normal" text-decoration="none" x="400" y="30"></text><text fill="#eeeeee" stroke="none" font-family="Arial" font-size="24px" font-style="normal" font-weight="normal" text-decoration="none" x="400" y="60"></text><text fill="#eeeeee" stroke="none" font-family="Arial" font-size="24px" font-style="normal" font-weight="normal" text-decoration="none" x="400" y="90"></text><text fill="#eeeeee" stroke="none" font-family="Arial" font-size="24px" font-style="normal" font-weight="normal" text-decoration="none" x="400" y="120"></text><text fill="#eeeeee" stroke="none" font-family="Arial" font-size="24px" font-style="normal" font-weight="normal" text-decoration="none" x="400" y="150"></text><text fill="#eeeeee" stroke="none" font-family="Arial" font-size="24px" font-style="normal" font-weight="normal" text-decoration="none" x="400" y="180"></text><text fill="#eeeeee" stroke="none" font-family="Arial" font-size="24px" font-style="normal" font-weight="normal" text-decoration="none" x="400" y="210"></text><text fill="#eeeeee" stroke="none" font-family="Arial" font-size="24px" font-style="normal" font-weight="normal" text-decoration="none" x="400" y="240"></text><text fill="#eeeeee" stroke="none" font-family="Arial" font-size="24px" font-style="normal" font-weight="normal" text-decoration="none" x="400" y="270"></text><text fill="#eeeeee" stroke="none" font-family="Arial" font-size="24px" font-style="normal" font-weight="normal" text-decoration="none" x="400" y="300"></text><text fill="#eeeeee" stroke="none" font-family="Arial" font-size="24px" font-style="normal" font-weight="normal" text-decoration="none" x="400" y="330"></text><text fill="#eeeeee" stroke="none" font-family="Arial" font-size="24px" font-style="normal" font-weight="normal" text-decoration="none" x="400" y="360"></text><text fill="#eeeeee" stroke="none" font-family="Arial" font-size="24px" font-style="normal" font-weight="normal" text-decoration="none" x="400" y="390"></text><text fill="#eeeeee" stroke="none" font-family="Arial" font-size="24px" font-style="normal" font-weight="normal" text-decoration="none" x="400" y="420"></text><text fill="#eeeeee" stroke="none" font-family="Arial" font-size="24px" font-style="normal" font-weight="normal" text-decoration="none" x="400" y="450"></text><text fill="#eeeeee" stroke="none" font-family="Arial" font-size="24px" font-style="normal" font-weight="normal" text-decoration="none" x="400" y="480"></text><text fill="#eeeeee" stroke="none" font-family="Arial" font-size="24px" font-style="normal" font-weight="normal" text-decoration="none" x="400" y="510"></text><text fill="#eeeeee" stroke="none" font-family="Arial" font-size="24px" font-style="normal" font-weight="normal" text-decoration="none" x="400" y="540"></text><text fill="#eeeeee" stroke="none" font-family="Arial" font-size="24px" font-style="normal" font-weight="normal" text-decoration="none" x="400" y="570"></text><text fill="#eeeeee" stroke="none" font-family="Arial" font-size="24px" font-style="normal" font-weight="normal" text-decoration="none" x="400" y="600"></text><text fill="#eeeeee" stroke="none" font-family="Arial" font-size="24px" font-style="normal" font-weight="normal" text-decoration="none" x="400" y="630"></text><text fill="#eeeeee" stroke="none" font-family="Arial" font-size="24px" font-style="normal" font-weight="normal" text-decoration="none" x="400" y="660"></text><text fill="#eeeeee" stroke="none" font-family="Arial" font-size="24px" font-style="normal" font-weight="normal" text-decoration="none" x="400" y="690"></text><text fill="#eeeeee" stroke="none" font-family="Arial" font-size="24px" font-style="normal" font-weight="normal" text-decoration="none" x="400" y="720"></text><text fill="#eeeeee" stroke="none" font-family="Arial" font-size="24px" font-style="normal" font-weight="normal" text-decoration="none" x="400" y="750"></text><text fill="#eeeeee" stroke="none" font-family="Arial" font-size="24px" font-style="normal" font-weight="normal" text-decoration="none" x="400" y="780"></text><text fill="#eeeeee" stroke="none" font-family="Arial" font-size="24px" font-style="normal" font-weight="normal" text-decoration="none" x="400" y="810"></text><text fill="#eeeeee" stroke="none" font-family="Arial" font-size="24px" font-style="normal" font-weight="normal" text-decoration="none" x="600" y="0"></text><text fill="#eeeeee" stroke="none" font-family="Arial" font-size="24px" font-style="normal" font-weight="normal" text-decoration="none" x="600" y="30"></text><text fill="#eeeeee" stroke="none" font-family="Arial" font-size="24px" font-style="normal" font-weight="normal" text-decoration="none" x="600" y="60"></text><text fill="#eeeeee" stroke="none" font-family="Arial" font-size="24px" font-style="normal" font-weight="normal" text-decoration="none" x="600" y="90"></text><text fill="#eeeeee" stroke="none" font-family="Arial" font-size="24px" font-style="normal" font-weight="normal" text-decoration="none" x="600" y="120"></text><text fill="#eeeeee" stroke="none" font-family="Arial" font-size="24px" font-style="normal" font-weight="normal" text-decoration="none" x="600" y="150"></text><text fill="#eeeeee" stroke="none" font-family="Arial" font-size="24px" font-style="normal" font-weight="normal" text-decoration="none" x="600" y="180"></text><text fill="#eeeeee" stroke="none" font-family="Arial" font-size="24px" font-style="normal" font-weight="normal" text-decoration="none" x="600" y="210"></text><text fill="#eeeeee" stroke="none" font-family="Arial" font-size="24px" font-style="normal" font-weight="normal" text-decoration="none" x="600" y="240"></text><text fill="#eeeeee" stroke="none" font-family="Arial" font-size="24px" font-style="normal" font-weight="normal" text-decoration="none" x="600" y="270"></text><text fill="#eeeeee" stroke="none" font-family="Arial" font-size="24px" font-style="normal" font-weight="normal" text-decoration="none" x="600" y="300"></text><text fill="#eeeeee" stroke="none" font-family="Arial" font-size="24px" font-style="normal" font-weight="normal" text-decoration="none" x="600" y="330"></text><text fill="#eeeeee" stroke="none" font-family="Arial" font-size="24px" font-style="normal" font-weight="normal" text-decoration="none" x="600" y="360"></text><text fill="#eeeeee" stroke="none" font-family="Arial" font-size="24px" font-style="normal" font-weight="normal" text-decoration="none" x="600" y="390"></text><text fill="#eeeeee" stroke="none" font-family="Arial" font-size="24px" font-style="normal" font-weight="normal" text-decoration="none" x="600" y="420"></text><text fill="#eeeeee" stroke="none" font-family="Arial" font-size="24px" font-style="normal" font-weight="normal" text-decoration="none" x="600" y="450"></text><text fill="#eeeeee" stroke="none" font-family="Arial" font-size="24px" font-style="normal" font-weight="normal" text-decoration="none" x="600" y="480"></text><text fill="#eeeeee" stroke="none" font-family="Arial" font-size="24px" font-style="normal" font-weight="normal" text-decoration="none" x="600" y="510"></text><text fill="#eeeeee" stroke="none" font-family="Arial" font-size="24px" font-style="normal" font-weight="normal" text-decoration="none" x="600" y="540"></text><text fill="#eeeeee" stroke="none" font-family="Arial" font-size="24px" font-style="normal" font-weight="normal" text-decoration="none" x="600" y="570"></text><text fill="#eeeeee" stroke="none" font-family="Arial" font-size="24px" font-style="normal" font-weight="normal" text-decoration="none" x="600" y="600"></text><text fill="#eeeeee" stroke="none" font-family="Arial" font-size="24px" font-style="normal" font-weight="normal" text-decoration="none" x="600" y="630"></text><text fill="#eeeeee" stroke="none" font-family="Arial" font-size="24px" font-style="normal" font-weight="normal" text-decoration="none" x="600" y="660"></text><text fill="#eeeeee" stroke="none" font-family="Arial" font-size="24px" font-style="normal" font-weight="normal" text-decoration="none" x="600" y="690"></text><text fill="#eeeeee" stroke="none" font-family="Arial" font-size="24px" font-style="normal" font-weight="normal" text-decoration="none" x="600" y="720"></text><text fill="#eeeeee" stroke="none" font-family="Arial" font-size="24px" font-style="normal" font-weight="normal" text-decoration="none" x="600" y="750"></text><text fill="#eeeeee" stroke="none" font-family="Arial" font-size="24px" font-style="normal" font-weight="normal" text-decoration="none" x="600" y="780"></text><text fill="#eeeeee" stroke="none" font-family="Arial" font-size="24px" font-style="normal" font-weight="normal" text-decoration="none" x="600" y="810"></text><g transform="translate(-342,-118) scale(1,1)"><rect fill="#C0C0C0" stroke="none" x="487" y="135" width="471" height="791" opacity="0.2"/></g><g transform="translate(-342,-118) scale(1,1)"><rect fill="#ffffff" stroke="none" x="480" y="128" width="471" height="791"/></g><g transform="translate(-342,-118) scale(1,1)"><path fill="none" stroke="#000000" d="M 480 128 L 951 128 L 951 919 L 480 919 L 480 128 Z Z" stroke-miterlimit="10"/></g><g transform="translate(-342,-118) scale(1,1)"><g><path fill="none" stroke="none"/><text fill="#000000" stroke="none" font-family="Source Sans Pro" font-size="15px" font-style="normal" font-weight="bold" text-decoration="none" x="672.8700561523438" y="149.5">Bitcoin wallet</text></g></g><g transform="translate(-342,-118) scale(1,1)"><path fill="#ffffff" stroke="none" d="M 374.32 467.2 C 374.32 457.14841664 382.23560473599997 449 392 449 C 401.76439526400003 449 409.68 457.14841664 409.68 467.2 C 409.68 477.25158336 401.76439526400003 485.4 392 485.4 C 382.23560473599997 485.4 374.32 477.25158336 374.32 467.2 Z"/></g><g transform="translate(-342,-118) scale(1,1)"><path fill="none" stroke="#000000" d="M 374.32 467.2 C 374.32 457.14841664 382.23560473599997 449 392 449 C 401.76439526400003 449 409.68 457.14841664 409.68 467.2 C 409.68 477.25158336 401.76439526400003 485.4 392 485.4 C 382.23560473599997 485.4 374.32 477.25158336 374.32 467.2 Z" stroke-miterlimit="10"/></g><g transform="translate(-342,-118) scale(1,1)"><path fill="none" stroke="#000000" d="M 392 485.4 L 392 520.6" stroke-miterlimit="10"/></g><g transform="translate(-342,-118) scale(1,1)"><path fill="none" stroke="#000000" d="M 373.28 498.6 L 410.72 498.6" stroke-miterlimit="10"/></g><g transform="translate(-342,-118) scale(1,1)"><path fill="none" stroke="#000000" d="M 392 520.6 L 366 557" stroke-miterlimit="10"/></g><g transform="translate(-342,-118) scale(1,1)"><path fill="none" stroke="#000000" d="M 392 520.6 L 418 557" stroke-miterlimit="10"/></g><g transform="translate(-342,-118) scale(1,1)"><g><path fill="none" stroke="none"/><text fill="#000000" stroke="none" font-family="Source Sans Pro" font-size="15px" font-style="normal" font-weight="bold" text-decoration="none" x="377.72752380371094" y="579.5">User</text></g></g><g transform="translate(-342,-118) scale(1,1)"><path fill="#ffffff" stroke="none" d="M 1030.3249209594726 467.2 C 1030.3249209594726 457.14841664 1038.2405256954726 449 1048.0049209594727 449 C 1057.7693162234727 449 1065.6849209594727 457.14841664 1065.6849209594727 467.2 C 1065.6849209594727 477.25158336 1057.7693162234727 485.4 1048.0049209594727 485.4 C 1038.2405256954726 485.4 1030.3249209594726 477.25158336 1030.3249209594726 467.2 Z"/></g><g transform="translate(-342,-118) scale(1,1)"><path fill="none" stroke="#000000" d="M 1030.3249209594726 467.2 C 1030.3249209594726 457.14841664 1038.2405256954726 449 1048.0049209594727 449 C 1057.7693162234727 449 1065.6849209594727 457.14841664 1065.6849209594727 467.2 C 1065.6849209594727 477.25158336 1057.7693162234727 485.4 1048.0049209594727 485.4 C 1038.2405256954726 485.4 1030.3249209594726 477.25158336 1030.3249209594726 467.2 Z" stroke-miterlimit="10"/></g><g transform="translate(-342,-118) scale(1,1)"><path fill="none" stroke="#000000" d="M 1048.0049209594727 485.4 L 1048.0049209594727 520.6" stroke-miterlimit="10"/></g><g transform="translate(-342,-118) scale(1,1)"><path fill="none" stroke="#000000" d="M 1029.2849209594726 498.6 L 1066.7249209594727 498.6" stroke-miterlimit="10"/></g><g transform="translate(-342,-118) scale(1,1)"><path fill="none" stroke="#000000" d="M 1048.0049209594727 520.6 L 1022.0049209594727 557" stroke-miterlimit="10"/></g><g transform="translate(-342,-118) scale(1,1)"><path fill="none" stroke="#000000" d="M 1048.0049209594727 520.6 L 1074.0049209594727 557" stroke-miterlimit="10"/></g><g transform="translate(-342,-118) scale(1,1)"><g><path fill="none" stroke="none"/><text fill="#000000" stroke="none" font-family="Source Sans Pro" font-size="15px" font-style="normal" font-weight="bold" text-decoration="none" x="990.0749969482422" y="579.5">Bitcoin blockchain</text></g></g><g transform="translate(-342,-118) scale(1,1)"><path fill="#C0C0C0" stroke="none" d="M 551 275 C 551 259.5360256 577.862912 247 611 247 C 644.137088 247 671 259.5360256 671 275 C 671 290.4639744 644.137088 303 611 303 C 577.862912 303 551 290.4639744 551 275 Z" opacity="0.2"/></g><g transform="translate(-342,-118) scale(1,1)"><path fill="#ffffff" stroke="none" d="M 544 268 C 544 252.5360256 570.862912 240 604 240 C 637.137088 240 664 252.5360256 664 268 C 664 283.4639744 637.137088 296 604 296 C 570.862912 296 544 283.4639744 544 268 Z"/></g><g transform="translate(-342,-118) scale(1,1)"><path fill="none" stroke="#000000" d="M 544 268 C 544 252.5360256 570.862912 240 604 240 C 637.137088 240 664 252.5360256 664 268 C 664 283.4639744 637.137088 296 604 296 C 570.862912 296 544 283.4639744 544 268 Z" stroke-miterlimit="10"/></g><g transform="translate(-342,-118) scale(1,1)"><g><path fill="none" stroke="none"/><text fill="#000000" stroke="none" font-family="Source Sans Pro" font-size="15px" font-style="normal" font-weight="bold" text-decoration="none" x="585.0100173950195" y="276">Log In</text></g></g><g transform="translate(-342,-118) scale(1,1)"><path fill="#C0C0C0" stroke="none" d="M 551 404 C 551 387.9837408 579.6537728 375 615 375 C 650.3462272 375 679 387.9837408 679 404 C 679 420.0162592 650.3462272 433 615 433 C 579.6537728 433 551 420.0162592 551 404 Z" opacity="0.2"/></g><g transform="translate(-342,-118) scale(1,1)"><path fill="#ffffff" stroke="none" d="M 544 397 C 544 380.9837408 572.6537728 368 608 368 C 643.3462272 368 672 380.9837408 672 397 C 672 413.0162592 643.3462272 426 608 426 C 572.6537728 426 544 413.0162592 544 397 Z"/></g><g transform="translate(-342,-118) scale(1,1)"><path fill="none" stroke="#000000" d="M 544 397 C 544 380.9837408 572.6537728 368 608 368 C 643.3462272 368 672 380.9837408 672 397 C 672 413.0162592 643.3462272 426 608 426 C 572.6537728 426 544 413.0162592 544 397 Z" stroke-miterlimit="10"/></g><g transform="translate(-342,-118) scale(1,1)"><g><path fill="none" stroke="none"/><text fill="#000000" stroke="none" font-family="Source Sans Pro" font-size="15px" font-style="normal" font-weight="bold" text-decoration="none" x="588.785026550293" y="397.5">Check</text><text fill="#000000" stroke="none" font-family="Source Sans Pro" font-size="15px" font-style="normal" font-weight="bold" text-decoration="none" x="582.9125289916992" y="412.5">Balance</text></g></g><g transform="translate(-342,-118) scale(1,1)"><path fill="#C0C0C0" stroke="none" d="M 551 708 C 551 691.9837408 581.4446336 679 619 679 C 656.5553664 679 687 691.9837408 687 708 C 687 724.0162592 656.5553664 737 619 737 C 581.4446336 737 551 724.0162592 551 708 Z" opacity="0.2"/></g><g transform="translate(-342,-118) scale(1,1)"><path fill="#ffffff" stroke="none" d="M 544 701 C 544 684.9837408 574.4446336 672 612 672 C 649.5553664 672 680 684.9837408 680 701 C 680 717.0162592 649.5553664 730 612 730 C 574.4446336 730 544 717.0162592 544 701 Z"/></g><g transform="translate(-342,-118) scale(1,1)"><path fill="none" stroke="#000000" d="M 544 701 C 544 684.9837408 574.4446336 672 612 672 C 649.5553664 672 680 684.9837408 680 701 C 680 717.0162592 649.5553664 730 612 730 C 574.4446336 730 544 717.0162592 544 701 Z" stroke-miterlimit="10"/></g><g transform="translate(-342,-118) scale(1,1)"><g><path fill="none" stroke="none"/><text fill="#000000" stroke="none" font-family="Source Sans Pro" font-size="15px" font-style="normal" font-weight="bold" text-decoration="none" x="587.9775314331055" y="701.5">Receive</text><text fill="#000000" stroke="none" font-family="Source Sans Pro" font-size="15px" font-style="normal" font-weight="bold" text-decoration="none" x="592.9275283813477" y="716.5">Funds</text></g></g><g transform="translate(-342,-118) scale(1,1)"><path fill="#C0C0C0" stroke="none" d="M 551 540 C 551 523.9837408 581.4446336 511 619 511 C 656.5553664 511 687 523.9837408 687 540 C 687 556.0162592 656.5553664 569 619 569 C 581.4446336 569 551 556.0162592 551 540 Z" opacity="0.2"/></g><g transform="translate(-342,-118) scale(1,1)"><path fill="#ffffff" stroke="none" d="M 544 533 C 544 516.9837408 574.4446336 504 612 504 C 649.5553664 504 680 516.9837408 680 533 C 680 549.0162592 649.5553664 562 612 562 C 574.4446336 562 544 549.0162592 544 533 Z"/></g><g transform="translate(-342,-118) scale(1,1)"><path fill="none" stroke="#000000" d="M 544 533 C 544 516.9837408 574.4446336 504 612 504 C 649.5553664 504 680 516.9837408 680 533 C 680 549.0162592 649.5553664 562 612 562 C 574.4446336 562 544 549.0162592 544 533 Z" stroke-miterlimit="10"/></g><g transform="translate(-342,-118) scale(1,1)"><g><path fill="none" stroke="none"/><text fill="#000000" stroke="none" font-family="Source Sans Pro" font-size="15px" font-style="normal" font-weight="bold" text-decoration="none" x="586.3875427246094" y="533.5">Transfer</text><text fill="#000000" stroke="none" font-family="Source Sans Pro" font-size="15px" font-style="normal" font-weight="bold" text-decoration="none" x="592.9275283813477" y="548.5">Funds</text></g></g><g transform="translate(-342,-118) scale(1,1)"><path fill="#C0C0C0" stroke="none" d="M 743 230.5 C 743 208.68475039999998 777.697928 191 820.5 191 C 863.302072 191 898 208.68475039999998 898 230.5 C 898 252.31524960000002 863.302072 270 820.5 270 C 777.697928 270 743 252.31524960000002 743 230.5 Z" opacity="0.2"/></g><g transform="translate(-342,-118) scale(1,1)"><path fill="#ffffff" stroke="none" d="M 736 223.5 C 736 201.68475039999998 770.697928 184 813.5 184 C 856.302072 184 891 201.68475039999998 891 223.5 C 891 245.31524960000002 856.302072 263 813.5 263 C 770.697928 263 736 245.31524960000002 736 223.5 Z"/></g><g transform="translate(-342,-118) scale(1,1)"><path fill="none" stroke="#000000" d="M 736 223.5 C 736 201.68475039999998 770.697928 184 813.5 184 C 856.302072 184 891 201.68475039999998 891 223.5 C 891 245.31524960000002 856.302072 263 813.5 263 C 770.697928 263 736 245.31524960000002 736 223.5 Z" stroke-miterlimit="10"/></g><g transform="translate(-342,-118) scale(1,1)"><g><path fill="none" stroke="none"/><text fill="#000000" stroke="none" font-family="Source Sans Pro" font-size="15px" font-style="normal" font-weight="bold" text-decoration="none" x="795.8900375366211" y="216.5">Verify</text><text fill="#000000" stroke="none" font-family="Source Sans Pro" font-size="15px" font-style="normal" font-weight="bold" text-decoration="none" x="775.0850448608398" y="231.5">Password or</text><text fill="#000000" stroke="none" font-family="Source Sans Pro" font-size="15px" font-style="normal" font-weight="bold" text-decoration="none" x="778.6025619506836" y="246.5">Fingerprint</text></g></g><g transform="translate(-342,-118) scale(1,1)"><path fill="#C0C0C0" stroke="none" d="M 743 324 C 743 307.9837408 777.0263552 295 819 295 C 860.9736448 295 895 307.9837408 895 324 C 895 340.0162592 860.9736448 353 819 353 C 777.0263552 353 743 340.0162592 743 324 Z" opacity="0.2"/></g><g transform="translate(-342,-118) scale(1,1)"><path fill="#ffffff" stroke="none" d="M 736 317 C 736 300.9837408 770.0263552 288 812 288 C 853.9736448 288 888 300.9837408 888 317 C 888 333.0162592 853.9736448 346 812 346 C 770.0263552 346 736 333.0162592 736 317 Z"/></g><g transform="translate(-342,-118) scale(1,1)"><path fill="none" stroke="#000000" d="M 736 317 C 736 300.9837408 770.0263552 288 812 288 C 853.9736448 288 888 300.9837408 888 317 C 888 333.0162592 853.9736448 346 812 346 C 770.0263552 346 736 333.0162592 736 317 Z" stroke-miterlimit="10"/></g><g transform="translate(-342,-118) scale(1,1)"><g><path fill="none" stroke="none"/><text fill="#000000" stroke="none" font-family="Source Sans Pro" font-size="15px" font-style="normal" font-weight="bold" text-decoration="none" x="770.1200485229492" y="317.5">Display Login</text><text fill="#000000" stroke="none" font-family="Source Sans Pro" font-size="15px" font-style="normal" font-weight="bold" text-decoration="none" x="796.2500228881836" y="332.5">Error</text></g></g><g transform="translate(-342,-118) scale(1,1)"><path fill="#C0C0C0" stroke="none" d="M 759 558.5 C 759 536.6847504 793.0263552 519 835 519 C 876.9736448 519 911 536.6847504 911 558.5 C 911 580.3152496 876.9736448 598 835 598 C 793.0263552 598 759 580.3152496 759 558.5 Z" opacity="0.2"/></g><g transform="translate(-342,-118) scale(1,1)"><path fill="#ffffff" stroke="none" d="M 752 551.5 C 752 529.6847504 786.0263552 512 828 512 C 869.9736448 512 904 529.6847504 904 551.5 C 904 573.3152496 869.9736448 591 828 591 C 786.0263552 591 752 573.3152496 752 551.5 Z"/></g><g transform="translate(-342,-118) scale(1,1)"><path fill="none" stroke="#000000" d="M 752 551.5 C 752 529.6847504 786.0263552 512 828 512 C 869.9736448 512 904 529.6847504 904 551.5 C 904 573.3152496 869.9736448 591 828 591 C 786.0263552 591 752 573.3152496 752 551.5 Z" stroke-miterlimit="10"/></g><g transform="translate(-342,-118) scale(1,1)"><g><path fill="none" stroke="none"/><text fill="#000000" stroke="none" font-family="Source Sans Pro" font-size="15px" font-style="normal" font-weight="bold" text-decoration="none" x="810.3900375366211" y="544.5">Verify</text><text fill="#000000" stroke="none" font-family="Source Sans Pro" font-size="15px" font-style="normal" font-weight="bold" text-decoration="none" x="798.1425476074219" y="559.5">Sufficient</text><text fill="#000000" stroke="none" font-family="Source Sans Pro" font-size="15px" font-style="normal" font-weight="bold" text-decoration="none" x="808.9275283813477" y="574.5">Funds</text></g></g><g transform="translate(-342,-118) scale(1,1)"><path fill="#C0C0C0" stroke="none" d="M 663 828 C 663 811.9837408 691.6537728 799 727 799 C 762.3462272 799 791 811.9837408 791 828 C 791 844.0162592 762.3462272 857 727 857 C 691.6537728 857 663 844.0162592 663 828 Z" opacity="0.2"/></g><g transform="translate(-342,-118) scale(1,1)"><path fill="#ffffff" stroke="none" d="M 656 821 C 656 804.9837408 684.6537728 792 720 792 C 755.3462272 792 784 804.9837408 784 821 C 784 837.0162592 755.3462272 850 720 850 C 684.6537728 850 656 837.0162592 656 821 Z"/></g><g transform="translate(-342,-118) scale(1,1)"><path fill="none" stroke="#000000" d="M 656 821 C 656 804.9837408 684.6537728 792 720 792 C 755.3462272 792 784 804.9837408 784 821 C 784 837.0162592 755.3462272 850 720 850 C 684.6537728 850 656 837.0162592 656 821 Z" stroke-miterlimit="10"/></g><g transform="translate(-342,-118) scale(1,1)"><g><path fill="none" stroke="none"/><text fill="#000000" stroke="none" font-family="Source Sans Pro" font-size="15px" font-style="normal" font-weight="bold" text-decoration="none" x="696.9825286865234" y="821.5">Display</text><text fill="#000000" stroke="none" font-family="Source Sans Pro" font-size="15px" font-style="normal" font-weight="bold" text-decoration="none" x="695.3025283813477" y="836.5">address</text></g></g><g transform="translate(-342,-118) scale(1,1)"><path fill="#C0C0C0" stroke="none" d="M 519 828 C 519 811.9837408 549.4446336 799 587 799 C 624.5553664 799 655 811.9837408 655 828 C 655 844.0162592 624.5553664 857 587 857 C 549.4446336 857 519 844.0162592 519 828 Z" opacity="0.2"/></g><g transform="translate(-342,-118) scale(1,1)"><path fill="#ffffff" stroke="none" d="M 512 821 C 512 804.9837408 542.4446336 792 580 792 C 617.5553664 792 648 804.9837408 648 821 C 648 837.0162592 617.5553664 850 580 850 C 542.4446336 850 512 837.0162592 512 821 Z"/></g><g transform="translate(-342,-118) scale(1,1)"><path fill="none" stroke="#000000" d="M 512 821 C 512 804.9837408 542.4446336 792 580 792 C 617.5553664 792 648 804.9837408 648 821 C 648 837.0162592 617.5553664 850 580 850 C 542.4446336 850 512 837.0162592 512 821 Z" stroke-miterlimit="10"/></g><g transform="translate(-342,-118) scale(1,1)"><g><path fill="none" stroke="none"/><text fill="#000000" stroke="none" font-family="Source Sans Pro" font-size="15px" font-style="normal" font-weight="bold" text-decoration="none" x="546.1300354003906" y="821.5">Display QR</text><text fill="#000000" stroke="none" font-family="Source Sans Pro" font-size="15px" font-style="normal" font-weight="bold" text-decoration="none" x="564.7900161743164" y="836.5">code</text></g></g><g transform="translate(-342,-118) scale(1,1)"><path fill="#C0C0C0" stroke="none" d="M 767 636 C 767 619.9837408 797.8923488 607 836 607 C 874.1076512 607 905 619.9837408 905 636 C 905 652.0162592 874.1076512 665 836 665 C 797.8923488 665 767 652.0162592 767 636 Z" opacity="0.2"/></g><g transform="translate(-342,-118) scale(1,1)"><path fill="#ffffff" stroke="none" d="M 760 629 C 760 612.9837408 790.8923488 600 829 600 C 867.1076512 600 898 612.9837408 898 629 C 898 645.0162592 867.1076512 658 829 658 C 790.8923488 658 760 645.0162592 760 629 Z"/></g><g transform="translate(-342,-118) scale(1,1)"><path fill="none" stroke="#000000" d="M 760 629 C 760 612.9837408 790.8923488 600 829 600 C 867.1076512 600 898 612.9837408 898 629 C 898 645.0162592 867.1076512 658 829 658 C 790.8923488 658 760 645.0162592 760 629 Z" stroke-miterlimit="10"/></g><g transform="translate(-342,-118) scale(1,1)"><g><path fill="none" stroke="none"/><text fill="#000000" stroke="none" font-family="Source Sans Pro" font-size="15px" font-style="normal" font-weight="bold" text-decoration="none" x="811.3900375366211" y="629.5">Verify</text><text fill="#000000" stroke="none" font-family="Source Sans Pro" font-size="15px" font-style="normal" font-weight="bold" text-decoration="none" x="804.3025283813477" y="644.5">address</text></g></g><g transform="translate(-342,-118) scale(1,1)"><path fill="#C0C0C0" stroke="none" d="M 767 703 C 767 689.7451648 799.2354944 679 839 679 C 878.7645056 679 911 689.7451648 911 703 C 911 716.2548352 878.7645056 727 839 727 C 799.2354944 727 767 716.2548352 767 703 Z" opacity="0.2"/></g><g transform="translate(-342,-118) scale(1,1)"><path fill="#ffffff" stroke="none" d="M 760 696 C 760 682.7451648 792.2354944 672 832 672 C 871.7645056 672 904 682.7451648 904 696 C 904 709.2548352 871.7645056 720 832 720 C 792.2354944 720 760 709.2548352 760 696 Z"/></g><g transform="translate(-342,-118) scale(1,1)"><path fill="none" stroke="#000000" d="M 760 696 C 760 682.7451648 792.2354944 672 832 672 C 871.7645056 672 904 682.7451648 904 696 C 904 709.2548352 871.7645056 720 832 720 C 792.2354944 720 760 709.2548352 760 696 Z" stroke-miterlimit="10"/></g><g transform="translate(-342,-118) scale(1,1)"><g><path fill="none" stroke="none"/><text fill="#000000" stroke="none" font-family="Source Sans Pro" font-size="15px" font-style="normal" font-weight="bold" text-decoration="none" x="789.1300354003906" y="704">Scan QR code</text></g></g><g transform="translate(-342,-118) scale(1,1)"><path fill="none" stroke="#000000" d="M 433 468 L 579 297" stroke-miterlimit="10"/></g><g transform="translate(-342,-118) scale(1,1)"><path fill="none" stroke="#000000" d="M 433 493 L 554 427" stroke-miterlimit="10"/></g><g transform="translate(-342,-118) scale(1,1)"><path fill="none" stroke="#000000" d="M 433 519 L 543 528" stroke-miterlimit="10"/></g><g transform="translate(-342,-118) scale(1,1)"><path fill="none" stroke="#000000" d="M 433 550 L 576 671" stroke-miterlimit="10"/></g><g transform="translate(-342,-118) scale(1,1)"><path fill="none" stroke="#000000" d="M 665 255 L 735 240" stroke-miterlimit="10" stroke-dasharray="3"/></g><g transform="translate(-342,-118) scale(1,1)"><path fill="none" stroke="#000000" d="M 725.9449284101457 246.2454526259203 L 735 240 L 724.1808955713168 238.013299378052" stroke-miterlimit="10"/></g><g transform="translate(-342,-118) scale(1,1)"><g><path fill="none" stroke="none"/><text fill="#000000" stroke="none" font-family="Arial" font-size="13px" font-style="normal" font-weight="normal" text-decoration="none" x="655.5" y="235.5">«include»</text></g></g><g transform="translate(-342,-118) scale(1,1)"><path fill="none" stroke="#000000" d="M 735 299 L 665 282" stroke-miterlimit="10" stroke-dasharray="3"/></g><g transform="translate(-342,-118) scale(1,1)"><path fill="none" stroke="#000000" d="M 675.8690518778894 280.30774964152835 L 665 282 L 673.8821819918646 288.48897858398334" stroke-miterlimit="10"/></g><g transform="translate(-342,-118) scale(1,1)"><g><path fill="none" stroke="none"/><text fill="#000000" stroke="none" font-family="Arial" font-size="13px" font-style="normal" font-weight="normal" text-decoration="none" x="663.5" y="316.5">«extend»</text></g></g><g transform="translate(-342,-118) scale(1,1)"><path fill="none" stroke="#000000" d="M 681 539 L 751 545" stroke-miterlimit="10" stroke-dasharray="3"/></g><g transform="translate(-342,-118) scale(1,1)"><path fill="none" stroke="#000000" d="M 740.5149553394235 548.3262348783145 L 751 545 L 741.2339505811872 539.9379570577379" stroke-miterlimit="10"/></g><g transform="translate(-342,-118) scale(1,1)"><g><path fill="none" stroke="none"/><text fill="#000000" stroke="none" font-family="Arial" font-size="13px" font-style="normal" font-weight="normal" text-decoration="none" x="695.5" y="532.5">«include»</text></g></g><g transform="translate(-342,-118) scale(1,1)"><path fill="none" stroke="#000000" d="M 656 562 L 656 616 M 656 616 A 8 8 0 0 0 664 624 L 760 624" stroke-miterlimit="10" stroke-dasharray="3"/></g><g transform="translate(-342,-118) scale(1,1)"><path fill="none" stroke="#000000" d="M 749.8373251423759 628.209517756016 L 760 624 L 749.8373251423758 619.790482243984" stroke-miterlimit="10"/></g><g transform="translate(-342,-118) scale(1,1)"><g><path fill="none" stroke="none"/><text fill="#000000" stroke="none" font-family="Arial" font-size="13px" font-style="normal" font-weight="normal" text-decoration="none" x="671.5" y="620.5">«include»</text></g></g><g transform="translate(-342,-118) scale(1,1)"><path fill="none" stroke="#000000" d="M 760 696 L 728 696 M 728 696 A 8 8 0 0 1 720 688 L 720 648 M 720 648 A 8 8 0 0 0 712 640 L 632 640 M 632 640 A 8 8 0 0 1 624 632 L 624 562" stroke-miterlimit="10" stroke-dasharray="3"/></g><g transform="translate(-342,-118) scale(1,1)"><path fill="none" stroke="#000000" d="M 628.209517756016 572.1626748576241 L 624 562 L 619.790482243984 572.1626748576241" stroke-miterlimit="10"/></g><g transform="translate(-342,-118) scale(1,1)"><g><path fill="none" stroke="none"/><text fill="#000000" stroke="none" font-family="Arial" font-size="13px" font-style="normal" font-weight="normal" text-decoration="none" x="655.5" y="660.5">«extend»</text></g></g><g transform="translate(-342,-118) scale(1,1)"><path fill="none" stroke="#000000" d="M 720 792 L 720 776 M 720 776 A 8 8 0 0 0 712 768 L 616 768 M 616 768 A 8 8 0 0 1 608 760 L 608 730" stroke-miterlimit="10"/></g><g transform="translate(-342,-118) scale(1,1)"><path fill="#FFFFFF" stroke="none" d="M 616.419035512032 750.3253497152483 L 608 730 L 599.580964487968 750.3253497152483"/></g><g transform="translate(-342,-118) scale(1,1)"><path fill="none" stroke="#000000" d="M 616.419035512032 750.3253497152483 L 608 730 L 599.580964487968 750.3253497152483 L 616.419035512032 750.3253497152483" stroke-miterlimit="10"/></g><g transform="translate(-342,-118) scale(1,1)"><path fill="none" stroke="#000000" d="M 576 792 L 576 776 M 576 776 A 8 8 0 0 1 584 768 L 600 768 M 600 768 A 8 8 0 0 0 608 760 L 608 730" stroke-miterlimit="10"/></g><g transform="translate(-342,-118) scale(1,1)"><path fill="#FFFFFF" stroke="none" d="M 616.419035512032 750.3253497152483 L 608 730 L 599.580964487968 750.3253497152483"/></g><g transform="translate(-342,-118) scale(1,1)"><path fill="none" stroke="#000000" d="M 616.419035512032 750.3253497152483 L 608 730 L 599.580964487968 750.3253497152483 L 616.419035512032 750.3253497152483" stroke-miterlimit="10"/></g><g transform="translate(-342,-118) scale(1,1)"><path fill="none" stroke="#000000" d="M 641 503 L 648 496 L 983 513" stroke-miterlimit="10"/></g><g transform="translate(-342,-118) scale(1,1)"><path fill="none" stroke="#000000" d="M 664 730 L 664 744 L 1048 744 L 1048 585" stroke-miterlimit="10"/></g><g transform="translate(-342,-118) scale(1,1)"><path fill="none" stroke="#000000" d="M 673 415 L 983 498" stroke-miterlimit="10"/></g></g></svg>